<svg xmlns="http://www.w3.org/2000/svg" viewBox="0 0 185.6 200">
  <defs>
    <style>
      .cls-1 {
        fill: #804200;
      }

      .cls-2 {
        fill: #0669b9;
      }

      .cls-3 {
        fill: #a2adb2;
      }

      .cls-4 {
        fill: #e3e6e8;
      }

      .cls-5 {
        fill: #fff;
        stroke: #e3e6e8;
      }
    </style>
  </defs>
  <title>router</title>
  <g id="Layer_2" data-name="Layer 2">
    <g xmlns="http://www.w3.org/2000/svg" id="Layer_1-2" data-name="Layer 1">
      <polygon class="cls-1"
        points="92.4 0 92.4 0 92.4 0 0 33.3 14 156.1 92.4 200 92.4 200 92.4 200 171.3 156.1 185.6 33.3 92.4 0" />
      <polygon class="cls-2"
        points="92.4 0 92.4 22.2 92.4 22.2 92.4 123.2 92.4 123.2 92.4 200 92.4 200 171.3 156.1 185.6 33.3 92.4 0" />

      <rect class="cls-3" x="55" y="60" width="60" height="80" />
      <rect class="cls-4" x="60" y="58" width="60" height="80" />
      <rect class="cls-5" x="65" y="56" width="60" height="80" />
      <rect class="cls-5" x="70" y="54" width="60" height="80" />
      <rect class="cls-5" x="75" y="52" width="60" height="80" />
      <rect class="cls-5" x="80" y="50" width="60" height="80" />

    </g>
  </g>
</svg>